<?xml version="1.0" encoding="UTF-8"?><svg id="Livello_2" xmlns="http://www.w3.org/2000/svg" viewBox="0 0 486.24 602.44"><defs><style>.cls-1{fill:#ee3a42;}.cls-2{fill:#ff212b;}.cls-3{fill:#999;}.cls-4{fill:#a11d23;}.cls-5{fill:#b7b6b6;}.cls-6{fill:#b9242b;}.cls-7{fill:#bf3a40;}.cls-8{fill:#ccc;}.cls-9{fill:#ca252c;}.cls-10{fill:#ca343b;}.cls-11{fill:#a41f25;}.cls-12{fill:#971d22;}</style></defs><g id="Layer_1"><path class="cls-3" d="M91.35,539.91l102.58,60c5.89,3.44,13.19,3.36,19-.21l261.43-160.94c4.95-3.05,4.87-10.27-.15-13.2l-101.16-59.09L91.36,530.53c-3.59,2.09-3.6,7.28,0,9.38Z"/><g><g><g><path class="cls-11" d="M466.72,221.85l-153.38-87.84c-3.77-2.13-18.16,6.65-17.72,10.95l11.3,153.92,143.39,73.78,16.4-150.81Zm-143.52,53.41l12.13-85.19c-.37-3.47,3.36-5.9,6.38-4.15l8.44,4.87c3.67,2.12,6.11,5.87,6.56,10.09l-11.95,87.39-21.56-13.01Zm36.14,21.88l18.61-82.24c-.37-3.47,3.36-5.9,6.38-4.15l8.44,4.87c3.67,2.12,6.11,5.87,6.56,10.09l-18.43,84.44-21.56-13.01Zm41.01,23.22l18.61-82.24c-.37-3.47,3.36-5.9,6.38-4.15l8.44,4.87c3.67,2.12,6.11,5.87,6.56,10.09l-18.43,84.44-21.56-13.01Z"/><path class="cls-9" d="M470.89,230.3l-164.72-93.32c-3.77-2.13-10.97,4.9-10.53,9.21l7.58,151.2c.3,2.96,2,5.59,4.56,7.1l137.63,70.39c3.64,2.14,8.18-.72,7.83-4.93l17.65-139.66Zm-150.91,48.18l12.13-85.19c-.37-3.47,3.36-5.9,6.38-4.15l8.44,4.87c3.67,2.12,6.11,5.87,6.56,10.09l-11.95,87.39-21.56-13.01Zm36.14,21.88l18.61-82.24c-.37-3.47,3.36-5.9,6.38-4.15l8.44,4.87c3.67,2.12,6.11,5.87,6.56,10.09l-18.43,84.44-21.56-13.01Zm41.01,23.22l18.61-82.24c-.37-3.47,3.36-5.9,6.38-4.15l8.44,4.87c3.67,2.12,6.11,5.87,6.56,10.09l-18.43,84.44-21.56-13.01Z"/></g><g><path class="cls-9" d="M53.15,407.04l.07-86.86c.56-5.29,3.62-9.99,8.22-12.65l10.59-6.11c3.8-2.19,8.47,.85,8.01,5.21l.16,84.1-27.05,16.31Zm70.2-40.44l.07-85.25c.56-5.29,3.62-9.99,8.22-12.65l10.59-6.11c3.8-2.19,8.47,.85,8.01,5.21l.16,82.49-27.05,16.31Zm151.83-176.65l-1.45,88.92-27.05,16.31,1.67-91.68c.56-5.29,3.62-9.99,8.22-12.65l10.59-6.11c3.8-2.19,8.47,.85,8.01,5.21ZM11.09,307.14l25.36,143.28,252.6-147.37c7.95-4.56,13.15-12.75,13.89-21.88l11.39-134.12c1.1-7.91-8.96-11.82-12.58-9.73L11.09,307.14Zm175.19,23.28l.07-88.47c.56-5.29,3.62-9.99,8.22-12.65l10.59-6.11c3.8-2.19,8.47,.85,8.01,5.21l.16,85.71-27.05,16.31Z"/><path class="cls-2" d="M57.97,411.87l.07-86.86c.56-5.29,3.62-9.99,8.22-12.65l10.59-6.11c3.8-2.19,8.47,.85,8.01,5.21l.16,84.1-27.05,16.31Zm70.2-40.44l.07-85.25c.56-5.29,3.62-9.99,8.22-12.65l10.59-6.11c3.8-2.19,8.47,.85,8.01,5.21l.16,82.49-27.05,16.31Zm151.83-176.65l-1.45,88.92-27.05,16.31,1.67-91.68c.56-5.29,3.62-9.99,8.22-12.65l10.59-6.11c3.8-2.19,8.47,.85,8.01,5.21ZM18.4,309.06l28.07,146.25,247.41-147.44c7.95-4.56,13.15-12.75,13.89-21.88l6.56-138.95c.34-4.16-4.14-7-7.76-4.91L18.4,309.06Zm172.71,26.18l.07-88.47c.56-5.29,3.62-9.99,8.22-12.65l10.59-6.11c3.8-2.19,8.47,.85,8.01,5.21l.16,85.71-27.05,16.31Z"/></g><polygon class="cls-12" points="35.64 447.07 307.76 285.99 447.89 373.31 181.74 531.09 35.64 447.07"/><path class="cls-4" d="M169.22,530.98s8.15,5.34,16.96-.28l-.9-6.84-13.74-4.09-2.32,11.21Z"/><path class="cls-9" d="M166.41,389.44l5.75,136.84,266.5-149.29c7.95-4.56,13.15-12.75,13.89-21.88l19.43-124.47c1.1-7.91-8.96-11.82-12.58-9.73L166.41,389.44Zm39.57,102.8l.07-86.86c.56-5.29,3.62-9.99,8.22-12.65l10.59-6.11c3.8-2.19,8.47,.85,8.01,5.21l.16,84.1-27.05,16.31Zm70.2-40.44l.07-85.25c.56-5.29,3.62-9.99,8.22-12.65l10.59-6.11c3.8-2.19,8.47,.85,8.01,5.21l.16,82.49-27.05,16.31Zm62.94-36.19l.07-88.47c.56-5.29,3.62-9.99,8.22-12.65l10.59-6.11c3.8-2.19,8.47,.85,8.01,5.21l.16,85.71-27.05,16.31Zm88.89-140.46l-1.45,88.92-27.05,16.31,1.67-91.68c.56-5.29,3.62-9.99,8.22-12.65l10.59-6.11c3.8-2.19,8.47,.85,8.01,5.21Z"/><path class="cls-2" d="M171.23,394.26l5.22,130.52c.43,5.14,6.06,8.09,10.53,5.52l256.5-148.49c7.95-4.56,13.15-12.75,13.89-21.88l14.6-129.3c.34-4.16-4.14-7-7.76-4.91L171.23,394.26Zm39.57,102.8l.07-86.86c.56-5.29,3.62-9.99,8.22-12.65l10.59-6.11c3.8-2.19,8.47,.85,8.01,5.21l.16,84.1-27.05,16.31Zm70.2-40.44l.07-85.25c.56-5.29,3.62-9.99,8.22-12.65l10.59-6.11c3.8-2.19,8.47,.85,8.01,5.21l.16,82.49-27.05,16.31Zm62.94-36.19l.07-88.47c.56-5.29,3.62-9.99,8.22-12.65l10.59-6.11c3.8-2.19,8.47,.85,8.01,5.21l.16,85.71-27.05,16.31Zm88.89-140.46l-1.45,88.92-27.05,16.31,1.67-91.68c.56-5.29,3.62-9.99,8.22-12.65l10.59-6.11c3.8-2.19,8.47,.85,8.01,5.21Z"/><path class="cls-11" d="M171.23,387.49L23.84,305.94c-3.77-2.13-15.33,.44-14.89,4.75l26.62,135.26,138.04,82.55-2.38-141Zm-121.56,37.43l-14-70.9c-.37-3.47,3.36-5.9,6.38-4.15l8.44,4.87c3.67,2.12,6.11,5.87,6.56,10.09l7.75,73.1-15.13-13.01Zm36.18,24.83l-7.57-70.9c-.37-3.47,3.36-5.9,6.38-4.15l8.44,4.87c3.67,2.12,6.11,5.87,6.56,10.09l7.75,73.1-21.56-13.01Zm41.01,23.22l-7.57-70.9c-.37-3.47,3.36-5.9,6.38-4.15l8.44,4.87c3.67,2.12,6.11,5.87,6.56,10.09l7.75,73.1-21.56-13.01Z"/><path class="cls-9" d="M171.23,394.26L16.48,306.86c-3.77-2.13-8.36,.88-7.92,5.19l23.31,132.41c.3,2.96,2,5.59,4.56,7.1l132.28,79.17c3.64,2.14,8.18-.72,7.83-4.93l-5.31-131.53Zm-124.78,33.88l-14-70.9c-.37-3.47,3.36-5.9,6.38-4.15l8.44,4.87c3.67,2.12,6.11,5.87,6.56,10.09l7.75,73.1-15.13-13.01Zm36.18,24.83l-7.57-70.9c-.37-3.47,3.36-5.9,6.38-4.15l8.44,4.87c3.67,2.12,6.11,5.87,6.56,10.09l7.75,73.1-21.56-13.01Zm41.01,23.22l-7.57-70.9c-.37-3.47,3.36-5.9,6.38-4.15l8.44,4.87c3.67,2.12,6.11,5.87,6.56,10.09l7.75,73.1-21.56-13.01Z"/></g><g><g><polygon class="cls-7" points="311.47 115.08 467.59 241.08 475.83 242.4 486.24 205.41 316.53 112.5 311.47 115.08"/><polygon class="cls-6" points="316.29 150.63 472.95 242.39 473.58 205.83 311.47 115.08 316.29 150.63"/></g><g><polygon class="cls-10" points="7.77 322.76 0 293.58 311.46 115.15 318.8 119.03 7.77 322.76"/><polygon class="cls-1" points="9.62 326.91 9.11 295.21 318.8 119.03 314.33 151.71 9.62 326.91"/></g><polygon class="cls-7" points="0 293.58 176.56 414.37 176.05 382.67 5.06 291 0 293.58"/><polygon class="cls-10" points="164.23 414.9 163.72 383.21 473.58 205.83 481.08 208.51 164.23 414.9"/><path class="cls-1" d="M171.74,417.59l-.51-31.69L486.24,205.41l-9.51,34.91c-.18,1.31-.95,2.46-2.1,3.12L171.74,417.59Z"/><path class="cls-6" d="M9.58,331.65l162.16,85.94-.51-31.69L0,293.58l4.1,30.21c.45,3.35,2.49,6.27,5.48,7.85Z"/><path class="cls-10" d="M278.94,317.25l5.45,3.86,56.2-39.15s-15.49-17.33-40.87,.2c-19.63,13.56-20.79,35.09-20.79,35.09Z"/><path class="cls-1" d="M284.4,321.11l61.61-35.27s-17.44-17.02-39.86-1.77c-19.73,13.42-21.75,37.04-21.75,37.04Z"/><path class="cls-10" d="M121.74,223.76l5.45,3.86,56.2-39.15s-15.49-17.33-40.87,.2c-19.63,13.56-20.79,35.09-20.79,35.09Z"/><path class="cls-1" d="M127.19,228.04l61.61-35.05s-17.44-17.67-39.86-2.42c-19.73,13.42-21.75,37.47-21.75,37.47Z"/><path class="cls-3" d="M163.92,204.87c-.47,4.76-3.8,8.33-7.43,7.97-3.63-.36-6.19-4.51-5.72-9.27,.47-4.76,3.8-8.33,7.43-7.97s6.19,4.51,5.72,9.27Z"/><path class="cls-5" d="M321.78,300.06c-.47,4.76-3.8,8.33-7.43,7.97s-6.19-4.51-5.72-9.27c.47-4.76,3.8-8.33,7.43-7.97s6.19,4.51,5.72,9.27Z"/><path class="cls-8" d="M323.24,99.25c-.05-12.82-6.43-24.74-17.07-31.87-28.18-18.9-90.83-51.25-116.46-64.29-8.4-4.27-18.36-4.11-26.63,.43-8.17,4.49-13.58,12.69-14.47,21.93-.11,1.12-.11,1.88-.11,2.09V184.9c7.36-3.72,13.79-4.21,17.69-4.02V27.61c0-.08,.01-.24,.03-.47,.33-3.46,2.29-6.41,5.38-8.11,3.19-1.75,6.86-1.81,10.09-.17,19.77,10.06,86.47,44.33,114.62,63.21,5.76,3.86,9.21,10.31,9.24,17.25l.8,201.73c.02,4.87,3.97,8.81,8.84,8.81h.04c4.89-.02,8.83-4,8.81-8.88l-.8-201.73Z"/></g></g></g></svg>