<svg xmlns="http://www.w3.org/2000/svg" viewBox="0 0 53.84 74.9"><defs><style>.cls-1{fill:#131313;}</style></defs><g id="Livello_2" data-name="Livello 2"><g id="Layer_1" data-name="Layer 1"><path class="cls-1" d="M45.7,25a19.32,19.32,0,0,0,.78-5.46,19.56,19.56,0,0,0-39.11,0A19.25,19.25,0,0,0,8.15,25,15.4,15.4,0,0,0,0,38.57V48a26.92,26.92,0,0,0,53.84,0V38.57A15.37,15.37,0,0,0,45.7,25ZM14.37,19.55a12.56,12.56,0,0,1,25.11,0,12.33,12.33,0,0,1-.55,3.66,12,12,0,0,1-1.69,3.49,12.63,12.63,0,0,1-3.67,3.5,12.55,12.55,0,0,1-17-3.5,12,12,0,0,1-1.69-3.49A12.33,12.33,0,0,1,14.37,19.55ZM46.84,48A19.92,19.92,0,0,1,7,48V38.57a8.37,8.37,0,0,1,4.28-7.3,19.52,19.52,0,0,0,31.28,0,8.37,8.37,0,0,1,4.28,7.3Z"/></g></g></svg>