<svg xmlns="http://www.w3.org/2000/svg" viewBox="0 0 72.98 72.96"><defs><style>.cls-1{fill:#131313;}</style></defs><g id="Livello_2" data-name="Livello 2"><g id="Layer_1" data-name="Layer 1"><g id="UIvsqD"><path class="cls-1" d="M72,18a4.71,4.71,0,0,0-3.7-1.78l-48.14,0c-.61-2.5-2.06-8.29-2.47-9.79A8,8,0,0,0,11,.22C8.53-.2,0,.12,0,.12L.38,6.85H8c2.65,0,2.78.1,3.41,2.72L14.12,20.8q3,12.56,6.1,25.1a8.57,8.57,0,0,0,8.63,6.76c3.41,0,29.68,0,29.68,0a8.92,8.92,0,0,0,8.61-6.76c1.35-5.38,4.16-17.28,5.71-23.9A4.7,4.7,0,0,0,72,18Zm-6.42,5.1c-1,4.35-3.56,15.33-4.94,21-.33,1.37-.85,1.76-2.28,1.77H29.18c-1.65,0-2.07-.35-2.49-2-.53-2.15-3.64-15.73-4.77-20.72Z"/></g><path class="cls-1" d="M25.24,54.59a9.19,9.19,0,1,0,9.18,9.18A9.19,9.19,0,0,0,25.24,54.59Zm0,13.32a4.14,4.14,0,1,1,4.13-4.14A4.15,4.15,0,0,1,25.24,67.91Z"/><path class="cls-1" d="M60.17,54.59a9.19,9.19,0,1,0,9.18,9.18A9.19,9.19,0,0,0,60.17,54.59Zm0,13.32a4.14,4.14,0,1,1,4.13-4.14A4.15,4.15,0,0,1,60.17,67.91Z"/></g></g></svg>